<?xml version="1.0" encoding="utf-8"?>
<!-- Generator: Adobe Illustrator 26.3.1, SVG Export Plug-In . SVG Version: 6.00 Build 0)  -->
<svg version="1.1" id="图层_1" xmlns="http://www.w3.org/2000/svg" xmlns:xlink="http://www.w3.org/1999/xlink" x="0px" y="0px"
	 viewBox="0 0 50 50" style="enable-background:new 0 0 50 50;" xml:space="preserve">
<style type="text/css">
	.st0{fill:#7BDDD7;}
	.st1{fill:url(#SVGID_1_);}
	.st2{fill:#FFFFFF;}
</style>
<path class="st0" d="M6.7,7.4L27,1.9c3.7-1,7.6,1.2,8.6,4.9L41.2,27c1,3.7-1.2,7.6-4.9,8.6L16,41.2c-3.7,1-7.6-1.2-8.6-4.9L1.9,16
	C0.8,12.3,3,8.4,6.7,7.4z"/>
<g>
	
		<linearGradient id="SVGID_1_" gradientUnits="userSpaceOnUse" x1="46.1359" y1="41.8698" x2="12.1359" y2="6.3698" gradientTransform="matrix(1 0 0 -1 0 52)">
		<stop  offset="0" style="stop-color:#CEFFFC;stop-opacity:0.67"/>
		<stop  offset="1" style="stop-color:#44D2CA;stop-opacity:0.39"/>
	</linearGradient>
	<path shape-rendering="crispEdges" class="st1" d="M17,8h25c3.9,0,7,3.1,7,7v25c0,3.9-3.1,7-7,7H17c-3.9,0-7-3.1-7-7V15
		C10,11.1,13.1,8,17,8z"/>
</g>
<path class="st2" d="M22,25.2c0-0.6,0.6-1.1,1.2-1.1h13.5c0.7,0,1.2,0.5,1.2,1.1s-0.6,1.1-1.2,1.1H23.2C22.6,26.4,22,25.9,22,25.2z"
	/>
<path class="st2" d="M22,25.2c0-0.6,0.6-1.1,1.2-1.1h13.5c0.7,0,1.2,0.5,1.2,1.1s-0.6,1.1-1.2,1.1H23.2C22.6,26.4,22,25.9,22,25.2z"
	/>
<path class="st2" d="M22,25.2c0-0.6,0.6-1.1,1.2-1.1h13.5c0.7,0,1.2,0.5,1.2,1.1s-0.6,1.1-1.2,1.1H23.2C22.6,26.4,22,25.9,22,25.2z"
	/>
<path class="st2" d="M22,25.2c0-0.6,0.6-1.1,1.2-1.1h13.5c0.7,0,1.2,0.5,1.2,1.1s-0.6,1.1-1.2,1.1H23.2C22.6,26.4,22,25.9,22,25.2z"
	/>
<path class="st2" d="M31.5,20.3c0.5-0.4,1.3-0.4,1.7,0l4.1,3.8c0.5,0.4,0.5,1.2,0,1.6c-0.5,0.4-1.3,0.4-1.7,0l-4.1-3.8
	C31,21.5,31,20.8,31.5,20.3z"/>
<path class="st2" d="M31.5,20.3c0.5-0.4,1.3-0.4,1.7,0l4.1,3.8c0.5,0.4,0.5,1.2,0,1.6c-0.5,0.4-1.3,0.4-1.7,0l-4.1-3.8
	C31,21.5,31,20.8,31.5,20.3z"/>
<path class="st2" d="M31.5,20.3c0.5-0.4,1.3-0.4,1.7,0l4.1,3.8c0.5,0.4,0.5,1.2,0,1.6c-0.5,0.4-1.3,0.4-1.7,0l-4.1-3.8
	C31,21.5,31,20.8,31.5,20.3z"/>
<path class="st2" d="M31.5,20.3c0.5-0.4,1.3-0.4,1.7,0l4.1,3.8c0.5,0.4,0.5,1.2,0,1.6c-0.5,0.4-1.3,0.4-1.7,0l-4.1-3.8
	C31,21.5,31,20.8,31.5,20.3z"/>
<path class="st2" d="M38,29.8c0,0.6-0.6,1.1-1.2,1.1H23.2c-0.7,0-1.2-0.5-1.2-1.1s0.6-1.1,1.2-1.1h13.5C37.4,28.6,38,29.1,38,29.8z"
	/>
<path class="st2" d="M38,29.8c0,0.6-0.6,1.1-1.2,1.1H23.2c-0.7,0-1.2-0.5-1.2-1.1s0.6-1.1,1.2-1.1h13.5C37.4,28.6,38,29.1,38,29.8z"
	/>
<path class="st2" d="M38,29.8c0,0.6-0.6,1.1-1.2,1.1H23.2c-0.7,0-1.2-0.5-1.2-1.1s0.6-1.1,1.2-1.1h13.5C37.4,28.6,38,29.1,38,29.8z"
	/>
<path class="st2" d="M38,29.8c0,0.6-0.6,1.1-1.2,1.1H23.2c-0.7,0-1.2-0.5-1.2-1.1s0.6-1.1,1.2-1.1h13.5C37.4,28.6,38,29.1,38,29.8z"
	/>
<path class="st2" d="M28.5,34.7c-0.5,0.4-1.3,0.4-1.7,0l-4.1-3.8c-0.5-0.4-0.5-1.2,0-1.6c0.5-0.4,1.3-0.4,1.7,0l4.1,3.8
	C29,33.5,29,34.2,28.5,34.7z"/>
<path class="st2" d="M28.5,34.7c-0.5,0.4-1.3,0.4-1.7,0l-4.1-3.8c-0.5-0.4-0.5-1.2,0-1.6c0.5-0.4,1.3-0.4,1.7,0l4.1,3.8
	C29,33.5,29,34.2,28.5,34.7z"/>
<path class="st2" d="M28.5,34.7c-0.5,0.4-1.3,0.4-1.7,0l-4.1-3.8c-0.5-0.4-0.5-1.2,0-1.6c0.5-0.4,1.3-0.4,1.7,0l4.1,3.8
	C29,33.5,29,34.2,28.5,34.7z"/>
<path class="st2" d="M28.5,34.7c-0.5,0.4-1.3,0.4-1.7,0l-4.1-3.8c-0.5-0.4-0.5-1.2,0-1.6c0.5-0.4,1.3-0.4,1.7,0l4.1,3.8
	C29,33.5,29,34.2,28.5,34.7z"/>
</svg>
