<?xml version="1.0" encoding="utf-8"?>
<!-- Generator: Adobe Illustrator 26.3.1, SVG Export Plug-In . SVG Version: 6.00 Build 0)  -->
<svg version="1.1" id="图层_1" xmlns="http://www.w3.org/2000/svg" xmlns:xlink="http://www.w3.org/1999/xlink" x="0px" y="0px"
	 viewBox="0 0 50 50" style="enable-background:new 0 0 50 50;" xml:space="preserve">
<style type="text/css">
	.st0{fill:#B2DD7B;}
	.st1{fill:url(#SVGID_1_);}
	.st2{fill:#F4FFD6;}
</style>
<path class="st0" d="M6.7,7.4L27,1.9c3.7-1,7.6,1.2,8.6,4.9L41.2,27c1,3.7-1.2,7.6-4.9,8.6L16,41.2c-3.7,1-7.6-1.2-8.6-4.9L1.9,16
	C0.8,12.3,3,8.4,6.7,7.4z"/>
<g>
	
		<linearGradient id="SVGID_1_" gradientUnits="userSpaceOnUse" x1="46.1359" y1="41.8698" x2="12.1359" y2="6.3698" gradientTransform="matrix(1 0 0 -1 0 52)">
		<stop  offset="0" style="stop-color:#EFFFCE;stop-opacity:0.67"/>
		<stop  offset="1" style="stop-color:#83D244;stop-opacity:0.39"/>
	</linearGradient>
	<path shape-rendering="crispEdges" class="st1" d="M17,8h25c3.9,0,7,3.1,7,7v25c0,3.9-3.1,7-7,7H17c-3.9,0-7-3.1-7-7V15
		C10,11.1,13.1,8,17,8z"/>
</g>
<g>
	<path class="st2" d="M24,27.5c0,1.9-1.6,3.5-3.5,3.5S17,29.4,17,27.5s1.6-3.5,3.5-3.5S24,25.6,24,27.5z"/>
	<path class="st2" d="M33.5,27.5c0,1.9-1.6,3.5-3.5,3.5s-3.5-1.6-3.5-3.5S28.1,24,30,24S33.5,25.6,33.5,27.5z"/>
	<path class="st2" d="M43,27.5c0,1.9-1.6,3.5-3.5,3.5S36,29.4,36,27.5s1.6-3.5,3.5-3.5S43,25.6,43,27.5z"/>
</g>
</svg>
