<?xml version="1.0" encoding="utf-8"?>
<!-- Generator: Adobe Illustrator 26.3.1, SVG Export Plug-In . SVG Version: 6.00 Build 0)  -->
<svg version="1.1" id="图层_1" xmlns="http://www.w3.org/2000/svg" xmlns:xlink="http://www.w3.org/1999/xlink" x="0px" y="0px"
	 viewBox="0 0 19 20" style="enable-background:new 0 0 19 20;" xml:space="preserve">
<style type="text/css">
	.st0{fill:none;stroke:#C1C1C1;stroke-width:2;}
	.st1{fill:none;stroke:url(#SVGID_1_);stroke-width:2;}
</style>
<path class="st0" d="M3,1h10c1.1,0,2,0.9,2,2v10c0,1.1-0.9,2-2,2H3c-1.1,0-2-0.9-2-2V3C1,1.9,1.9,1,3,1z"/>
<linearGradient id="SVGID_1_" gradientUnits="userSpaceOnUse" x1="3.3895" y1="17.6107" x2="18.3893" y2="2.6109" gradientTransform="matrix(1 0 0 -1 0 22)">
	<stop  offset="0" style="stop-color:#D75D80"/>
	<stop  offset="0.5417" style="stop-color:#6DA2E3"/>
	<stop  offset="1" style="stop-color:#7AE0D6"/>
</linearGradient>
<path class="st1" d="M6,5h10c1.1,0,2,0.9,2,2v10c0,1.1-0.9,2-2,2H6c-1.1,0-2-0.9-2-2V7C4,5.9,4.9,5,6,5z"/>
</svg>
